# xmcd
#
# Track frame offsets:
#	150
#	11848
#	23464
#	36595
#	51046
#	64766
#	77455
#	91994
#	103798
#	117640
#	129536
#	141612
#	154470
#	168198
#
# Disc length: 2434 seconds
#
# Revision: 0
# Processed by: cddbd v1.5.2PL0 Copyright (c) Steve Scherf et al.
# Submitted via: EZCDAudioConverter 1.3.4.1
#
DISCID=bf09800e
DTITLE=Stereophonic Space Sound Unlimited - Spooky Sound Sessions
DYEAR=1900
DGENRE=
TTITLE0=Sitar Jerk
TTITLE1=Do The Lurk Around
TTITLE2=Robotheque
TTITLE3=The Whistler Returns
TTITLE4=Gilera Baby
TTITLE5=Recordshop
TTITLE6=Contract Killer
TTITLE7=La Fille Dans Le Train
TTITLE8=RE-307
TTITLE9=Action Scope
TTITLE10=November Morning
TTITLE11=Chicken Skin
TTITLE12=La Casa Gialla
TTITLE13=Sad City
EXTD=
EXTT0=
EXTT1=
EXTT2=
EXTT3=
EXTT4=
EXTT5=
EXTT6=
EXTT7=
EXTT8=
EXTT9=
EXTT10=
EXTT11=
EXTT12=
EXTT13=
PLAYORDER=
